<?xml version="1.0" standalone="no"?>
<!DOCTYPE svg PUBLIC "-//W3C//DTD SVG 20010904//EN"
 "http://www.w3.org/TR/2001/REC-SVG-20010904/DTD/svg10.dtd">
<svg version="1.0" xmlns="http://www.w3.org/2000/svg"
 width="700.000000pt" height="700.000000pt" viewBox="0 0 700.000000 700.000000"
 preserveAspectRatio="xMidYMid meet">
<metadata>
Created by potrace 1.11, written by Peter Selinger 2001-2013
</metadata>
<g transform="translate(0.000000,700.000000) scale(0.100000,-0.100000)"
fill="#000000" stroke="none">
<path d="M737 6990 c-187 -32 -360 -123 -488 -256 -108 -114 -168 -216 -216
-371 l-28 -88 0 -2775 0 -2775 28 -88 c95 -304 300 -509 604 -604 l88 -28
2775 0 2775 0 88 28 c311 97 528 320 609 627 l23 85 0 2765 0 2765 -28 88
c-48 155 -108 257 -216 371 -106 110 -226 183 -388 233 l-88 28 -2745 1
c-1510 1 -2767 -2 -2793 -6z m4598 -1102 c23 -24 37 -53 44 -89 8 -39 11 -565
9 -1874 l-3 -1820 -23 -70 c-83 -245 -238 -387 -486 -442 -47 -10 -121 -15
-221 -15 -220 0 -375 36 -513 120 -170 103 -267 263 -279 462 -13 208 67 353
242 436 125 60 304 94 500 94 130 0 264 15 325 35 67 22 124 85 139 154 15 71
16 1888 0 1928 -13 36 -25 43 -76 43 -33 0 -1045 -216 -1986 -423 -117 -26
-142 -41 -157 -96 -6 -23 -10 -512 -10 -1371 0 -1159 -2 -1344 -15 -1399 -53
-222 -231 -388 -493 -458 -89 -25 -113 -27 -297 -27 -230 -1 -288 10 -421 74
-173 84 -267 223 -296 441 -21 158 15 288 108 386 117 125 321 193 584 193
276 0 438 51 492 152 l23 43 5 1460 c5 1458 5 1460 26 1500 27 51 65 73 167
95 90 20 1173 244 1762 365 204 42 442 91 530 110 109 23 180 33 224 32 59 -3
66 -6 96 -39z"/>
</g>
</svg>
