<svg width="64" height="64" viewBox="0 0 64 64" fill="none" xmlns="http://www.w3.org/2000/svg">
<path d="M31.5 1C14.1042 1 0 15.2313 0 32.7837C0 46.8287 9.02475 58.7398 21.5428 62.9417C23.1174 63.2327 23.6923 62.2511 23.6923 61.413C23.6923 60.6564 23.6635 58.1501 23.6481 55.4963C14.8887 57.4168 13.0372 51.7484 13.0372 51.7484C11.603 48.078 9.53995 47.1003 9.53995 47.1003C6.6772 45.1293 9.75712 45.1681 9.75712 45.1681C12.9198 45.3893 14.5849 48.4427 14.5849 48.4427C17.3958 53.3003 21.96 51.8958 23.7519 51.081C24.0382 49.0325 24.8534 47.628 25.7514 46.8365C18.7589 46.0334 11.403 43.3058 11.403 31.127C11.403 27.6545 12.6316 24.8222 14.6426 22.5971C14.3215 21.7901 13.2371 18.5563 14.954 14.1818C14.954 14.1818 17.5957 13.3282 23.6172 17.4409C26.1281 16.7328 28.8218 16.3836 31.4999 16.3719C34.1762 16.3836 36.8717 16.7366 39.3865 17.4447C45.3966 13.3282 48.0421 14.1856 48.0421 14.1856C49.7648 18.564 48.6804 21.794 48.3574 22.5971C50.3761 24.8222 51.5951 27.6545 51.5951 31.127C51.5951 43.3369 44.2277 46.0256 37.2102 46.8132C38.3445 47.7987 39.3481 49.7308 39.3481 52.695C39.3481 56.9435 39.3058 60.3694 39.3058 61.4169C39.3058 62.2627 39.8787 63.2521 41.4745 62.9417C53.983 58.7321 63 46.8209 63 32.7837C63 15.2313 48.8958 1 31.5 1Z" fill="black"/>
</svg>
