<svg width="256" height="256" viewBox="0 0 256 256" fill="none" xmlns="http://www.w3.org/2000/svg">
<g clip-path="url(#clip0)">
<rect width="256" height="256" rx="32" fill="#7371FC"/>
<path d="M197 46.3602V176.21C197 176.21 196.534 198.452 170.985 198.452C143.01 198.452 141.125 180.376 141.125 176.195C141.125 167.255 144.634 157.51 170.925 157.51C183.028 157.51 185.825 154.412 185.825 146.518C185.825 146.518 185.825 89.1574 185.825 84.2719C185.825 79.3865 185.527 77.6207 180.077 78.8486C170.701 80.9593 109.462 94.1802 107.019 94.7626C104.575 95.345 103.875 96.788 103.875 101.076C103.875 108.966 103.875 186.385 103.875 194.743C103.875 203.1 97.386 217 74.075 217C50.764 217 48 202.169 48 194.743C48 183.714 56.3812 176.599 74.1011 176.599C90.6065 176.599 92.7 171.966 92.7 165.066C92.7 140.461 92.7 68.4692 92.7 64.908C92.7 61.3469 94.1565 58.9394 97.7883 58.1418C103.864 56.8138 190.094 39.108 190.094 39.108C190.094 39.108 197 37.5389 197 46.3602Z" fill="white"/>
</g>
<defs>
<clipPath id="clip0">
<rect width="256" height="256" fill="white"/>
</clipPath>
</defs>
</svg>
