<svg width="238" height="380" viewBox="0 0 238 380" fill="none" xmlns="http://www.w3.org/2000/svg">
<rect x="16.5" y="185.5" width="204" height="146" rx="7.5" fill="#3D76E7" fill-opacity="0.15" stroke="black"/>
<rect x="16.5" y="32.5" width="204" height="147" rx="7.5" fill="#40E73D" fill-opacity="0.15" stroke="black"/>
<path d="M34.9637 347.459C34.8677 347.459 34.7957 347.427 34.7477 347.363C34.7157 347.299 34.7317 347.235 34.7957 347.171L38.8037 341.459C38.8357 341.411 38.8357 341.363 38.8037 341.315L34.7957 335.603C34.7637 335.571 34.7477 335.531 34.7477 335.483C34.7477 335.371 34.8197 335.315 34.9637 335.315H36.2597C36.3877 335.315 36.4837 335.363 36.5477 335.459L39.6917 339.995C39.7077 340.011 39.7317 340.019 39.7637 340.019C39.7957 340.019 39.8197 340.011 39.8357 339.995L42.9557 335.459C43.0197 335.363 43.1157 335.315 43.2437 335.315H44.6597C44.7557 335.315 44.8197 335.347 44.8517 335.411C44.8837 335.459 44.8677 335.523 44.8037 335.603L40.7957 341.315C40.7797 341.363 40.7797 341.411 40.7957 341.459L44.8037 347.171C44.8357 347.203 44.8517 347.251 44.8517 347.315C44.8517 347.347 44.8357 347.379 44.8037 347.411C44.7717 347.443 44.7237 347.459 44.6597 347.459H43.3397C43.2117 347.459 43.1157 347.411 43.0517 347.315L39.9317 342.779C39.9157 342.747 39.8917 342.731 39.8597 342.731C39.8277 342.731 39.8037 342.747 39.7877 342.779L36.6197 347.315C36.5557 347.411 36.4597 347.459 36.3317 347.459H34.9637Z" fill="black"/>
<path d="M46.3405 343.614C46.3805 343.594 46.4239 343.584 46.4705 343.584H47.0105C47.0772 343.584 47.1105 343.617 47.1105 343.684V350.484C47.1105 350.55 47.0772 350.584 47.0105 350.584H46.5005C46.4339 350.584 46.4005 350.55 46.4005 350.484V344.394C46.4005 344.38 46.3939 344.37 46.3805 344.364C46.3739 344.357 46.3639 344.357 46.3505 344.364L45.2905 344.794L45.2505 344.804C45.2105 344.804 45.1839 344.777 45.1705 344.724L45.1205 344.344V344.324C45.1205 344.29 45.1439 344.257 45.1905 344.224L46.3405 343.614Z" fill="black"/>
<path d="M193.839 346.508C193.743 346.508 193.671 346.476 193.623 346.412C193.591 346.348 193.607 346.284 193.671 346.22L197.679 340.508C197.711 340.46 197.711 340.412 197.679 340.364L193.671 334.652C193.639 334.62 193.623 334.58 193.623 334.532C193.623 334.42 193.695 334.364 193.839 334.364H195.135C195.263 334.364 195.359 334.412 195.423 334.508L198.567 339.044C198.583 339.06 198.607 339.068 198.639 339.068C198.671 339.068 198.695 339.06 198.711 339.044L201.831 334.508C201.895 334.412 201.991 334.364 202.119 334.364H203.535C203.631 334.364 203.695 334.396 203.727 334.46C203.759 334.508 203.743 334.572 203.679 334.652L199.671 340.364C199.655 340.412 199.655 340.46 199.671 340.508L203.679 346.22C203.711 346.252 203.727 346.3 203.727 346.364C203.727 346.396 203.711 346.428 203.679 346.46C203.647 346.492 203.599 346.508 203.535 346.508H202.215C202.087 346.508 201.991 346.46 201.927 346.364L198.807 341.828C198.791 341.796 198.767 341.78 198.735 341.78C198.703 341.78 198.679 341.796 198.663 341.828L195.495 346.364C195.431 346.46 195.335 346.508 195.207 346.508H193.839Z" fill="black"/>
<path d="M205.888 349.914C205.868 349.947 205.874 349.964 205.908 349.964H209.048C209.114 349.964 209.148 349.997 209.148 350.064V350.484C209.148 350.55 209.114 350.584 209.048 350.584H205.058C204.991 350.584 204.958 350.55 204.958 350.484V350.064C204.958 350.017 204.974 349.977 205.008 349.944C205.234 349.677 205.744 349.05 206.538 348.064L207.278 347.144C207.904 346.35 208.218 345.734 208.218 345.294C208.218 344.94 208.098 344.657 207.858 344.444C207.618 344.23 207.304 344.124 206.918 344.124C206.538 344.124 206.231 344.234 205.998 344.454C205.764 344.667 205.651 344.95 205.658 345.304V345.614C205.658 345.68 205.624 345.714 205.558 345.714H205.038C204.971 345.714 204.938 345.68 204.938 345.614V345.214C204.951 344.7 205.141 344.287 205.508 343.974C205.881 343.66 206.351 343.504 206.918 343.504C207.318 343.504 207.671 343.58 207.978 343.734C208.284 343.887 208.521 344.1 208.688 344.374C208.854 344.64 208.938 344.944 208.938 345.284C208.938 345.85 208.624 346.534 207.998 347.334C207.671 347.754 207.041 348.527 206.108 349.654L205.888 349.914Z" fill="black"/>
<path d="M136.748 285.862C136.475 285.903 136.286 286.157 136.327 286.43L136.99 290.881C137.031 291.154 137.285 291.343 137.558 291.302C137.831 291.262 138.02 291.007 137.979 290.734L137.39 286.778L141.346 286.188C141.619 286.148 141.808 285.893 141.767 285.62C141.726 285.347 141.472 285.159 141.199 285.199L136.748 285.862ZM188.492 324.009L137.119 285.955L136.524 286.759L187.897 324.813L188.492 324.009Z" fill="black"/>
<circle cx="122.076" cy="273.514" r="14.2459" stroke="black"/>
<path d="M119.492 267.671C119.172 267.671 118.932 267.695 118.772 267.743C118.628 267.775 118.5 267.847 118.388 267.959C118.292 268.055 118.204 268.191 118.124 268.367C118.06 268.527 118.028 268.679 118.028 268.823L116.708 268.799C116.74 268.047 116.98 267.447 117.428 266.999C117.668 266.775 117.948 266.615 118.268 266.519C118.604 266.407 119.02 266.343 119.516 266.327H130.004V267.671H120.932V273.383H127.124V274.727H120.932V282.743H119.492V267.671Z" fill="black"/>
<path d="M125.303 277.971C125.343 277.951 125.386 277.941 125.433 277.941H125.973C126.039 277.941 126.073 277.974 126.073 278.041V284.841C126.073 284.907 126.039 284.941 125.973 284.941H125.463C125.396 284.941 125.363 284.907 125.363 284.841V278.751C125.363 278.737 125.356 278.727 125.343 278.721C125.336 278.714 125.326 278.714 125.313 278.721L124.253 279.151L124.213 279.161C124.173 279.161 124.146 279.134 124.133 279.081L124.083 278.701V278.681C124.083 278.647 124.106 278.614 124.153 278.581L125.303 277.971Z" fill="black"/>
<path d="M56.8345 224.024C56.5613 224.065 56.3729 224.319 56.4136 224.593L57.0765 229.043C57.1171 229.317 57.3715 229.505 57.6447 229.464C57.9178 229.424 58.1062 229.169 58.0656 228.896L57.4763 224.94L61.4327 224.351C61.7058 224.31 61.8942 224.055 61.8536 223.782C61.8129 223.509 61.5585 223.321 61.2854 223.361L56.8345 224.024ZM108.579 262.171L57.2057 224.117L56.6105 224.921L107.983 262.975L108.579 262.171Z" fill="black"/>
<circle cx="40.2595" cy="211.676" r="14.2459" stroke="black"/>
<line x1="40.2838" y1="204.541" x2="40.2838" y2="217.859" stroke="black"/>
<line x1="33.1243" y1="211.651" x2="46.4432" y2="211.651" stroke="black"/>
<circle cx="198.184" cy="84.1946" r="14.2459" stroke="black"/>
<line x1="198.208" y1="77.0595" x2="198.208" y2="90.3784" stroke="black"/>
<line x1="191.049" y1="84.1703" x2="204.368" y2="84.1703" stroke="black"/>
<path d="M40.1373 228.922C39.9421 228.727 39.6255 228.727 39.4302 228.922L36.2482 232.104C36.053 232.299 36.053 232.616 36.2482 232.811C36.4435 233.006 36.7601 233.006 36.9554 232.811L39.7838 229.983L42.6122 232.811C42.8075 233.006 43.1241 233.006 43.3193 232.811C43.5146 232.616 43.5146 232.299 43.3193 232.104L40.1373 228.922ZM40.2838 324.411L40.2838 229.276L39.2838 229.276L39.2838 324.411L40.2838 324.411Z" fill="black"/>
<path d="M104.965 138.047C105.021 137.777 104.848 137.512 104.577 137.456L100.171 136.543C99.9003 136.487 99.6357 136.661 99.5797 136.931C99.5237 137.202 99.6974 137.466 99.9678 137.523L103.885 138.334L103.073 142.251C103.017 142.521 103.191 142.786 103.461 142.842C103.732 142.898 103.996 142.724 104.052 142.454L104.965 138.047ZM41.0096 180.223L104.75 138.364L104.201 137.528L40.4607 179.387L41.0096 180.223Z" fill="black"/>
<path d="M183.925 93.3458C183.987 93.0769 183.82 92.8081 183.551 92.7455L179.169 91.7248C178.9 91.6622 178.631 91.8294 178.568 92.0984C178.506 92.3673 178.673 92.6361 178.942 92.6988L182.837 93.606L181.93 97.5018C181.868 97.7707 182.035 98.0395 182.304 98.1021C182.573 98.1648 182.842 97.9975 182.904 97.7286L183.925 93.3458ZM140.891 120.295L183.702 93.657L183.174 92.8079L140.363 119.446L140.891 120.295Z" fill="black"/>
<circle cx="122.076" cy="127.005" r="14.2459" stroke="black"/>
<path d="M119.492 121.163C119.172 121.163 118.932 121.187 118.772 121.235C118.628 121.267 118.5 121.339 118.388 121.451C118.292 121.547 118.204 121.683 118.124 121.859C118.06 122.019 118.028 122.171 118.028 122.315L116.708 122.291C116.74 121.539 116.98 120.939 117.428 120.491C117.668 120.267 117.948 120.107 118.268 120.011C118.604 119.899 119.02 119.835 119.516 119.819H130.004V121.163H120.932V126.875H127.124V128.219H120.932V136.235H119.492V121.163Z" fill="black"/>
<path d="M125.023 137.762C125.003 137.796 125.009 137.812 125.043 137.812H128.183C128.249 137.812 128.283 137.846 128.283 137.912V138.332C128.283 138.399 128.249 138.432 128.183 138.432H124.193C124.126 138.432 124.093 138.399 124.093 138.332V137.912C124.093 137.866 124.109 137.826 124.143 137.792C124.369 137.526 124.879 136.899 125.673 135.912L126.413 134.992C127.039 134.199 127.353 133.582 127.353 133.142C127.353 132.789 127.233 132.506 126.993 132.292C126.753 132.079 126.439 131.972 126.053 131.972C125.673 131.972 125.366 132.082 125.133 132.302C124.899 132.516 124.786 132.799 124.793 133.152V133.462C124.793 133.529 124.759 133.562 124.693 133.562H124.173C124.106 133.562 124.073 133.529 124.073 133.462V133.062C124.086 132.549 124.276 132.136 124.643 131.822C125.016 131.509 125.486 131.352 126.053 131.352C126.453 131.352 126.806 131.429 127.113 131.582C127.419 131.736 127.656 131.949 127.823 132.222C127.989 132.489 128.073 132.792 128.073 133.132C128.073 133.699 127.759 134.382 127.133 135.182C126.806 135.602 126.176 136.376 125.243 137.502L125.023 137.762Z" fill="black"/>
<path d="M198.062 103.344C197.866 103.148 197.55 103.148 197.355 103.344L194.173 106.526C193.977 106.721 193.977 107.038 194.173 107.233C194.368 107.428 194.684 107.428 194.88 107.233L197.708 104.404L200.537 107.233C200.732 107.428 201.048 107.428 201.244 107.233C201.439 107.038 201.439 106.721 201.244 106.526L198.062 103.344ZM198.208 324.411L198.208 103.697L197.208 103.697L197.208 324.411L198.208 324.411Z" fill="black"/>
<path d="M198.062 34.8464C197.866 34.6512 197.55 34.6512 197.355 34.8464L194.173 38.0284C193.977 38.2237 193.977 38.5403 194.173 38.7355C194.368 38.9308 194.684 38.9308 194.88 38.7355L197.708 35.9071L200.537 38.7355C200.732 38.9308 201.048 38.9308 201.244 38.7355C201.439 38.5403 201.439 38.2237 201.244 38.0284L198.062 34.8464ZM198.208 63.7405L198.208 35.2L197.208 35.2L197.208 63.7405L198.208 63.7405Z" fill="black"/>
<path d="M35.4437 29.7514C35.3317 29.7514 35.2757 29.6714 35.2757 29.5114V28.5514C35.2757 28.3914 35.3557 28.3114 35.5157 28.3114H35.6117C36.2357 28.2954 36.7157 28.1994 37.0517 28.0234C37.4037 27.8634 37.6997 27.5514 37.9397 27.0874C38.1957 26.6394 38.4677 25.9514 38.7557 25.0234C38.7877 24.9594 38.7877 24.9114 38.7557 24.8794L34.6997 13.0714L34.6757 12.9754C34.6757 12.8634 34.7477 12.8074 34.8917 12.8074H36.1637C36.3077 12.8074 36.4037 12.8714 36.4517 12.9994L39.5717 22.6954C39.5877 22.7274 39.6117 22.7434 39.6437 22.7434C39.6757 22.7434 39.6997 22.7274 39.7157 22.6954L42.7877 12.9994C42.8357 12.8714 42.9317 12.8074 43.0757 12.8074H44.3237C44.4997 12.8074 44.5637 12.8954 44.5157 13.0714L40.0757 26.0074C39.6917 27.0794 39.3317 27.8714 38.9957 28.3834C38.6597 28.8954 38.2357 29.2474 37.7237 29.4394C37.2277 29.6474 36.5237 29.7514 35.6117 29.7514H35.4437Z" fill="black"/>
<path d="M46.3405 21.1057C46.3805 21.0857 46.4239 21.0757 46.4705 21.0757H47.0105C47.0772 21.0757 47.1105 21.109 47.1105 21.1757V27.9757C47.1105 28.0423 47.0772 28.0757 47.0105 28.0757H46.5005C46.4339 28.0757 46.4005 28.0423 46.4005 27.9757V21.8857C46.4005 21.8723 46.3939 21.8623 46.3805 21.8557C46.3739 21.849 46.3639 21.849 46.3505 21.8557L45.2905 22.2857L45.2505 22.2957C45.2105 22.2957 45.1839 22.269 45.1705 22.2157L45.1205 21.8357V21.8157C45.1205 21.7823 45.1439 21.749 45.1905 21.7157L46.3405 21.1057Z" fill="black"/>
<path d="M194.319 28.8C194.207 28.8 194.151 28.72 194.151 28.56V27.6C194.151 27.44 194.231 27.36 194.391 27.36H194.487C195.111 27.344 195.591 27.248 195.927 27.072C196.279 26.912 196.575 26.6 196.815 26.136C197.071 25.688 197.343 25 197.631 24.072C197.663 24.008 197.663 23.96 197.631 23.928L193.575 12.12L193.551 12.024C193.551 11.912 193.623 11.856 193.767 11.856H195.039C195.183 11.856 195.279 11.92 195.327 12.048L198.447 21.744C198.463 21.776 198.487 21.792 198.519 21.792C198.551 21.792 198.575 21.776 198.591 21.744L201.663 12.048C201.711 11.92 201.807 11.856 201.951 11.856H203.199C203.375 11.856 203.439 11.944 203.391 12.12L198.951 25.056C198.567 26.128 198.207 26.92 197.871 27.432C197.535 27.944 197.111 28.296 196.599 28.488C196.103 28.696 195.399 28.8 194.487 28.8H194.319Z" fill="black"/>
<path d="M205.888 27.4057C205.868 27.439 205.874 27.4557 205.908 27.4557H209.048C209.114 27.4557 209.148 27.489 209.148 27.5557V27.9757C209.148 28.0423 209.114 28.0757 209.048 28.0757H205.058C204.991 28.0757 204.958 28.0423 204.958 27.9757V27.5557C204.958 27.509 204.974 27.469 205.008 27.4357C205.234 27.169 205.744 26.5423 206.538 25.5557L207.278 24.6357C207.904 23.8423 208.218 23.2257 208.218 22.7857C208.218 22.4323 208.098 22.149 207.858 21.9357C207.618 21.7223 207.304 21.6157 206.918 21.6157C206.538 21.6157 206.231 21.7257 205.998 21.9457C205.764 22.159 205.651 22.4423 205.658 22.7957V23.1057C205.658 23.1723 205.624 23.2057 205.558 23.2057H205.038C204.971 23.2057 204.938 23.1723 204.938 23.1057V22.7057C204.951 22.1923 205.141 21.779 205.508 21.4657C205.881 21.1523 206.351 20.9957 206.918 20.9957C207.318 20.9957 207.671 21.0723 207.978 21.2257C208.284 21.379 208.521 21.5923 208.688 21.8657C208.854 22.1323 208.938 22.4357 208.938 22.7757C208.938 23.3423 208.624 24.0257 207.998 24.8257C207.671 25.2457 207.041 26.019 206.108 27.1457L205.888 27.4057Z" fill="black"/>
<path d="M41.0887 34.8464C40.8934 34.6512 40.5768 34.6512 40.3816 34.8464L37.1996 38.0284C37.0043 38.2237 37.0043 38.5403 37.1996 38.7355C37.3949 38.9308 37.7114 38.9308 37.9067 38.7355L40.7351 35.9071L43.5636 38.7355C43.7588 38.9308 44.0754 38.9308 44.2707 38.7355C44.4659 38.5403 44.4659 38.2237 44.2707 38.0284L41.0887 34.8464ZM41.2351 192.173L41.2351 35.2L40.2351 35.2L40.2351 192.173L41.2351 192.173Z" fill="black"/>
<path d="M59.832 45.328H58.12V50H56.6V38.976H59.496C60.872 38.976 61.912 39.2373 62.616 39.76C63.3307 40.2827 63.688 41.0613 63.688 42.096C63.688 42.864 63.4907 43.488 63.096 43.968C62.7013 44.448 62.104 44.8107 61.304 45.056L64.28 50H62.472L59.832 45.328ZM59.656 44.16C60.456 44.16 61.0587 44 61.464 43.68C61.8693 43.3493 62.072 42.8213 62.072 42.096C62.072 41.4133 61.864 40.9227 61.448 40.624C61.0427 40.3147 60.3867 40.16 59.48 40.16H58.12V44.16H59.656ZM72.3411 45.536C72.3411 45.7813 72.3305 46.032 72.3091 46.288H66.9331C66.9971 47.216 67.2318 47.8987 67.6371 48.336C68.0425 48.7733 68.5651 48.992 69.2051 48.992C69.6105 48.992 69.9838 48.9333 70.3251 48.816C70.6665 48.6987 71.0238 48.512 71.3971 48.256L72.0371 49.136C71.1411 49.84 70.1598 50.192 69.0931 50.192C67.9198 50.192 67.0025 49.808 66.3411 49.04C65.6905 48.272 65.3651 47.216 65.3651 45.872C65.3651 44.9973 65.5038 44.224 65.7811 43.552C66.0691 42.8693 66.4745 42.336 66.9971 41.952C67.5305 41.568 68.1545 41.376 68.8691 41.376C69.9891 41.376 70.8478 41.744 71.4451 42.48C72.0425 43.216 72.3411 44.2347 72.3411 45.536ZM70.8851 45.104C70.8851 44.272 70.7198 43.6373 70.3891 43.2C70.0585 42.7627 69.5625 42.544 68.9011 42.544C67.6958 42.544 67.0398 43.4293 66.9331 45.2H70.8851V45.104ZM80.8214 41.568L77.9574 50H76.1814L73.2694 41.568H74.8694L77.0774 48.688L79.2694 41.568H80.8214ZM88.8099 45.536C88.8099 45.7813 88.7992 46.032 88.7779 46.288H83.4019C83.4659 47.216 83.7005 47.8987 84.1059 48.336C84.5112 48.7733 85.0339 48.992 85.6739 48.992C86.0792 48.992 86.4525 48.9333 86.7939 48.816C87.1352 48.6987 87.4925 48.512 87.8659 48.256L88.5059 49.136C87.6099 49.84 86.6285 50.192 85.5619 50.192C84.3885 50.192 83.4712 49.808 82.8099 49.04C82.1592 48.272 81.8339 47.216 81.8339 45.872C81.8339 44.9973 81.9725 44.224 82.2499 43.552C82.5379 42.8693 82.9432 42.336 83.4659 41.952C83.9992 41.568 84.6232 41.376 85.3379 41.376C86.4579 41.376 87.3165 41.744 87.9139 42.48C88.5112 43.216 88.8099 44.2347 88.8099 45.536ZM87.3539 45.104C87.3539 44.272 87.1885 43.6373 86.8579 43.2C86.5272 42.7627 86.0312 42.544 85.3699 42.544C84.1645 42.544 83.5085 43.4293 83.4019 45.2H87.3539V45.104ZM94.8246 41.376C95.1233 41.376 95.4006 41.408 95.6566 41.472L95.3846 42.912C95.1286 42.848 94.8833 42.816 94.6486 42.816C94.126 42.816 93.7046 43.008 93.3846 43.392C93.0646 43.776 92.814 44.3733 92.6326 45.184V50H91.1606V41.568H92.4246L92.5686 43.28C92.7926 42.6507 93.0966 42.176 93.4806 41.856C93.8646 41.536 94.3126 41.376 94.8246 41.376ZM99.3861 41.376C99.9621 41.376 100.479 41.456 100.938 41.616C101.397 41.776 101.834 42.016 102.25 42.336L101.626 43.264C101.242 43.0187 100.874 42.8373 100.522 42.72C100.181 42.6027 99.8181 42.544 99.4341 42.544C98.9541 42.544 98.5755 42.6453 98.2981 42.848C98.0208 43.04 97.8821 43.3067 97.8821 43.648C97.8821 43.9893 98.0101 44.256 98.2661 44.448C98.5328 44.64 99.0075 44.8267 99.6901 45.008C100.629 45.2427 101.327 45.5627 101.786 45.968C102.255 46.3733 102.49 46.928 102.49 47.632C102.49 48.464 102.165 49.0987 101.514 49.536C100.874 49.9733 100.09 50.192 99.1621 50.192C97.8821 50.192 96.8208 49.824 95.9781 49.088L96.7621 48.192C97.4768 48.736 98.2661 49.008 99.1301 49.008C99.6848 49.008 100.122 48.896 100.442 48.672C100.773 48.4373 100.938 48.1227 100.938 47.728C100.938 47.44 100.879 47.2107 100.762 47.04C100.645 46.8587 100.442 46.704 100.154 46.576C99.8661 46.4373 99.4448 46.2933 98.8901 46.144C97.9941 45.9093 97.3435 45.5947 96.9381 45.2C96.5435 44.8053 96.3461 44.304 96.3461 43.696C96.3461 43.2587 96.4741 42.864 96.7301 42.512C96.9968 42.1493 97.3595 41.872 97.8181 41.68C98.2875 41.4773 98.8101 41.376 99.3861 41.376ZM106.039 41.568V50H104.567V41.568H106.039ZM105.287 37.52C105.596 37.52 105.847 37.616 106.039 37.808C106.231 38 106.327 38.24 106.327 38.528C106.327 38.816 106.231 39.056 106.039 39.248C105.847 39.4293 105.596 39.52 105.287 39.52C104.988 39.52 104.743 39.4293 104.551 39.248C104.359 39.056 104.263 38.816 104.263 38.528C104.263 38.24 104.359 38 104.551 37.808C104.743 37.616 104.988 37.52 105.287 37.52ZM112.939 41.376C113.899 41.376 114.661 41.7653 115.227 42.544C115.792 43.312 116.075 44.3893 116.075 45.776C116.075 46.6507 115.941 47.424 115.675 48.096C115.408 48.7573 115.024 49.2747 114.523 49.648C114.021 50.0107 113.435 50.192 112.763 50.192C111.877 50.192 111.131 49.8187 110.523 49.072L110.379 50H109.083V38.176L110.555 38V42.624C111.163 41.792 111.957 41.376 112.939 41.376ZM112.411 49.024C113.061 49.024 113.568 48.7627 113.931 48.24C114.304 47.7067 114.491 46.8853 114.491 45.776C114.491 44.6347 114.32 43.8133 113.979 43.312C113.637 42.8 113.152 42.544 112.523 42.544C111.776 42.544 111.12 42.9813 110.555 43.856V47.888C110.779 48.24 111.051 48.5173 111.371 48.72C111.701 48.9227 112.048 49.024 112.411 49.024ZM120.263 50.192C119.719 50.192 119.287 50.032 118.967 49.712C118.657 49.3813 118.503 48.9227 118.503 48.336V38.176L119.975 38V48.304C119.975 48.5387 120.012 48.7093 120.087 48.816C120.172 48.9227 120.311 48.976 120.503 48.976C120.705 48.976 120.887 48.944 121.047 48.88L121.431 49.904C121.079 50.096 120.689 50.192 120.263 50.192ZM129.56 45.536C129.56 45.7813 129.549 46.032 129.528 46.288H124.152C124.216 47.216 124.451 47.8987 124.856 48.336C125.261 48.7733 125.784 48.992 126.424 48.992C126.829 48.992 127.203 48.9333 127.544 48.816C127.885 48.6987 128.243 48.512 128.616 48.256L129.256 49.136C128.36 49.84 127.379 50.192 126.312 50.192C125.139 50.192 124.221 49.808 123.56 49.04C122.909 48.272 122.584 47.216 122.584 45.872C122.584 44.9973 122.723 44.224 123 43.552C123.288 42.8693 123.693 42.336 124.216 41.952C124.749 41.568 125.373 41.376 126.088 41.376C127.208 41.376 128.067 41.744 128.664 42.48C129.261 43.216 129.56 44.2347 129.56 45.536ZM128.104 45.104C128.104 44.272 127.939 43.6373 127.608 43.2C127.277 42.7627 126.781 42.544 126.12 42.544C124.915 42.544 124.259 43.4293 124.152 45.2H128.104V45.104ZM141.089 44.176C141.846 44.304 142.46 44.5707 142.929 44.976C143.398 45.3813 143.633 46.0107 143.633 46.864C143.633 48.9547 142.177 50 139.265 50H136.225V38.976H138.833C140.23 38.976 141.297 39.2053 142.033 39.664C142.78 40.1227 143.153 40.8213 143.153 41.76C143.153 42.4 142.95 42.9333 142.545 43.36C142.15 43.7867 141.665 44.0587 141.089 44.176ZM137.745 40.176V43.648H139.409C140.049 43.648 140.572 43.4933 140.977 43.184C141.393 42.8747 141.601 42.4373 141.601 41.872C141.601 41.232 141.382 40.7893 140.945 40.544C140.518 40.2987 139.868 40.176 138.993 40.176H137.745ZM139.265 48.784C140.161 48.784 140.844 48.6507 141.313 48.384C141.793 48.1173 142.033 47.6107 142.033 46.864C142.033 46.1387 141.804 45.616 141.345 45.296C140.886 44.976 140.289 44.816 139.553 44.816H137.745V48.784H139.265ZM147.559 50.192C147.015 50.192 146.583 50.032 146.263 49.712C145.954 49.3813 145.799 48.9227 145.799 48.336V38.176L147.271 38V48.304C147.271 48.5387 147.309 48.7093 147.383 48.816C147.469 48.9227 147.607 48.976 147.799 48.976C148.002 48.976 148.183 48.944 148.343 48.88L148.727 49.904C148.375 50.096 147.986 50.192 147.559 50.192ZM153.657 41.376C154.841 41.376 155.758 41.7707 156.409 42.56C157.07 43.3493 157.401 44.4213 157.401 45.776C157.401 46.6507 157.251 47.424 156.953 48.096C156.654 48.7573 156.222 49.2747 155.657 49.648C155.091 50.0107 154.419 50.192 153.641 50.192C152.457 50.192 151.534 49.7973 150.873 49.008C150.211 48.2187 149.881 47.1467 149.881 45.792C149.881 44.9173 150.03 44.1493 150.329 43.488C150.627 42.816 151.059 42.2987 151.625 41.936C152.19 41.5627 152.867 41.376 153.657 41.376ZM153.657 42.56C152.195 42.56 151.465 43.6373 151.465 45.792C151.465 47.936 152.19 49.008 153.641 49.008C155.091 49.008 155.817 47.9307 155.817 45.776C155.817 43.632 155.097 42.56 153.657 42.56ZM162.905 41.376C163.406 41.376 163.865 41.4507 164.281 41.6C164.697 41.7387 165.097 41.968 165.481 42.288L164.777 43.216C164.478 43.0027 164.185 42.848 163.897 42.752C163.619 42.6453 163.31 42.592 162.969 42.592C162.286 42.592 161.753 42.864 161.369 43.408C160.995 43.952 160.809 44.7573 160.809 45.824C160.809 46.8907 160.995 47.68 161.369 48.192C161.742 48.6933 162.275 48.944 162.969 48.944C163.299 48.944 163.603 48.896 163.881 48.8C164.158 48.6933 164.467 48.528 164.809 48.304L165.481 49.264C164.713 49.8827 163.854 50.192 162.905 50.192C161.763 50.192 160.862 49.808 160.201 49.04C159.55 48.272 159.225 47.2107 159.225 45.856C159.225 44.96 159.374 44.176 159.673 43.504C159.971 42.832 160.393 42.3093 160.937 41.936C161.491 41.5627 162.147 41.376 162.905 41.376ZM168.945 38V50H167.473V38.176L168.945 38ZM173.793 41.568L170.689 45.296L174.145 50H172.385L169.041 45.392L172.145 41.568H173.793ZM58.648 58.136C59.288 58.136 59.848 58.264 60.328 58.52C60.8187 58.776 61.1973 59.128 61.464 59.576C61.7307 60.0133 61.864 60.5093 61.864 61.064C61.864 61.7147 61.7147 62.3387 61.416 62.936C61.128 63.5333 60.68 64.1787 60.072 64.872C59.464 65.5653 58.5413 66.5307 57.304 67.768H62.12L61.944 69H55.624V67.832C57.0533 66.3493 58.0667 65.2667 58.664 64.584C59.2613 63.8907 59.688 63.288 59.944 62.776C60.2 62.264 60.328 61.7147 60.328 61.128C60.328 60.5733 60.168 60.1413 59.848 59.832C59.528 59.512 59.1013 59.352 58.568 59.352C58.1307 59.352 57.7467 59.4427 57.416 59.624C57.0853 59.8053 56.7333 60.104 56.36 60.52L55.4 59.752C55.8373 59.208 56.3227 58.8027 56.856 58.536C57.3893 58.2693 57.9867 58.136 58.648 58.136Z" fill="#777777"/>
<path d="M59.832 196.328H58.12V201H56.6V189.976H59.496C60.872 189.976 61.912 190.237 62.616 190.76C63.3307 191.283 63.688 192.061 63.688 193.096C63.688 193.864 63.4907 194.488 63.096 194.968C62.7013 195.448 62.104 195.811 61.304 196.056L64.28 201H62.472L59.832 196.328ZM59.656 195.16C60.456 195.16 61.0587 195 61.464 194.68C61.8693 194.349 62.072 193.821 62.072 193.096C62.072 192.413 61.864 191.923 61.448 191.624C61.0427 191.315 60.3867 191.16 59.48 191.16H58.12V195.16H59.656ZM72.3411 196.536C72.3411 196.781 72.3305 197.032 72.3091 197.288H66.9331C66.9971 198.216 67.2318 198.899 67.6371 199.336C68.0425 199.773 68.5651 199.992 69.2051 199.992C69.6105 199.992 69.9838 199.933 70.3251 199.816C70.6665 199.699 71.0238 199.512 71.3971 199.256L72.0371 200.136C71.1411 200.84 70.1598 201.192 69.0931 201.192C67.9198 201.192 67.0025 200.808 66.3411 200.04C65.6905 199.272 65.3651 198.216 65.3651 196.872C65.3651 195.997 65.5038 195.224 65.7811 194.552C66.0691 193.869 66.4745 193.336 66.9971 192.952C67.5305 192.568 68.1545 192.376 68.8691 192.376C69.9891 192.376 70.8478 192.744 71.4451 193.48C72.0425 194.216 72.3411 195.235 72.3411 196.536ZM70.8851 196.104C70.8851 195.272 70.7198 194.637 70.3891 194.2C70.0585 193.763 69.5625 193.544 68.9011 193.544C67.6958 193.544 67.0398 194.429 66.9331 196.2H70.8851V196.104ZM80.8214 192.568L77.9574 201H76.1814L73.2694 192.568H74.8694L77.0774 199.688L79.2694 192.568H80.8214ZM88.8099 196.536C88.8099 196.781 88.7992 197.032 88.7779 197.288H83.4019C83.4659 198.216 83.7005 198.899 84.1059 199.336C84.5112 199.773 85.0339 199.992 85.6739 199.992C86.0792 199.992 86.4525 199.933 86.7939 199.816C87.1352 199.699 87.4925 199.512 87.8659 199.256L88.5059 200.136C87.6099 200.84 86.6285 201.192 85.5619 201.192C84.3885 201.192 83.4712 200.808 82.8099 200.04C82.1592 199.272 81.8339 198.216 81.8339 196.872C81.8339 195.997 81.9725 195.224 82.2499 194.552C82.5379 193.869 82.9432 193.336 83.4659 192.952C83.9992 192.568 84.6232 192.376 85.3379 192.376C86.4579 192.376 87.3165 192.744 87.9139 193.48C88.5112 194.216 88.8099 195.235 88.8099 196.536ZM87.3539 196.104C87.3539 195.272 87.1885 194.637 86.8579 194.2C86.5272 193.763 86.0312 193.544 85.3699 193.544C84.1645 193.544 83.5085 194.429 83.4019 196.2H87.3539V196.104ZM94.8246 192.376C95.1233 192.376 95.4006 192.408 95.6566 192.472L95.3846 193.912C95.1286 193.848 94.8833 193.816 94.6486 193.816C94.126 193.816 93.7046 194.008 93.3846 194.392C93.0646 194.776 92.814 195.373 92.6326 196.184V201H91.1606V192.568H92.4246L92.5686 194.28C92.7926 193.651 93.0966 193.176 93.4806 192.856C93.8646 192.536 94.3126 192.376 94.8246 192.376ZM99.3861 192.376C99.9621 192.376 100.479 192.456 100.938 192.616C101.397 192.776 101.834 193.016 102.25 193.336L101.626 194.264C101.242 194.019 100.874 193.837 100.522 193.72C100.181 193.603 99.8181 193.544 99.4341 193.544C98.9541 193.544 98.5755 193.645 98.2981 193.848C98.0208 194.04 97.8821 194.307 97.8821 194.648C97.8821 194.989 98.0101 195.256 98.2661 195.448C98.5328 195.64 99.0075 195.827 99.6901 196.008C100.629 196.243 101.327 196.563 101.786 196.968C102.255 197.373 102.49 197.928 102.49 198.632C102.49 199.464 102.165 200.099 101.514 200.536C100.874 200.973 100.09 201.192 99.1621 201.192C97.8821 201.192 96.8208 200.824 95.9781 200.088L96.7621 199.192C97.4768 199.736 98.2661 200.008 99.1301 200.008C99.6848 200.008 100.122 199.896 100.442 199.672C100.773 199.437 100.938 199.123 100.938 198.728C100.938 198.44 100.879 198.211 100.762 198.04C100.645 197.859 100.442 197.704 100.154 197.576C99.8661 197.437 99.4448 197.293 98.8901 197.144C97.9941 196.909 97.3435 196.595 96.9381 196.2C96.5435 195.805 96.3461 195.304 96.3461 194.696C96.3461 194.259 96.4741 193.864 96.7301 193.512C96.9968 193.149 97.3595 192.872 97.8181 192.68C98.2875 192.477 98.8101 192.376 99.3861 192.376ZM106.039 192.568V201H104.567V192.568H106.039ZM105.287 188.52C105.596 188.52 105.847 188.616 106.039 188.808C106.231 189 106.327 189.24 106.327 189.528C106.327 189.816 106.231 190.056 106.039 190.248C105.847 190.429 105.596 190.52 105.287 190.52C104.988 190.52 104.743 190.429 104.551 190.248C104.359 190.056 104.263 189.816 104.263 189.528C104.263 189.24 104.359 189 104.551 188.808C104.743 188.616 104.988 188.52 105.287 188.52ZM112.939 192.376C113.899 192.376 114.661 192.765 115.227 193.544C115.792 194.312 116.075 195.389 116.075 196.776C116.075 197.651 115.941 198.424 115.675 199.096C115.408 199.757 115.024 200.275 114.523 200.648C114.021 201.011 113.435 201.192 112.763 201.192C111.877 201.192 111.131 200.819 110.523 200.072L110.379 201H109.083V189.176L110.555 189V193.624C111.163 192.792 111.957 192.376 112.939 192.376ZM112.411 200.024C113.061 200.024 113.568 199.763 113.931 199.24C114.304 198.707 114.491 197.885 114.491 196.776C114.491 195.635 114.32 194.813 113.979 194.312C113.637 193.8 113.152 193.544 112.523 193.544C111.776 193.544 111.12 193.981 110.555 194.856V198.888C110.779 199.24 111.051 199.517 111.371 199.72C111.701 199.923 112.048 200.024 112.411 200.024ZM120.263 201.192C119.719 201.192 119.287 201.032 118.967 200.712C118.657 200.381 118.503 199.923 118.503 199.336V189.176L119.975 189V199.304C119.975 199.539 120.012 199.709 120.087 199.816C120.172 199.923 120.311 199.976 120.503 199.976C120.705 199.976 120.887 199.944 121.047 199.88L121.431 200.904C121.079 201.096 120.689 201.192 120.263 201.192ZM129.56 196.536C129.56 196.781 129.549 197.032 129.528 197.288H124.152C124.216 198.216 124.451 198.899 124.856 199.336C125.261 199.773 125.784 199.992 126.424 199.992C126.829 199.992 127.203 199.933 127.544 199.816C127.885 199.699 128.243 199.512 128.616 199.256L129.256 200.136C128.36 200.84 127.379 201.192 126.312 201.192C125.139 201.192 124.221 200.808 123.56 200.04C122.909 199.272 122.584 198.216 122.584 196.872C122.584 195.997 122.723 195.224 123 194.552C123.288 193.869 123.693 193.336 124.216 192.952C124.749 192.568 125.373 192.376 126.088 192.376C127.208 192.376 128.067 192.744 128.664 193.48C129.261 194.216 129.56 195.235 129.56 196.536ZM128.104 196.104C128.104 195.272 127.939 194.637 127.608 194.2C127.277 193.763 126.781 193.544 126.12 193.544C124.915 193.544 124.259 194.429 124.152 196.2H128.104V196.104ZM141.089 195.176C141.846 195.304 142.46 195.571 142.929 195.976C143.398 196.381 143.633 197.011 143.633 197.864C143.633 199.955 142.177 201 139.265 201H136.225V189.976H138.833C140.23 189.976 141.297 190.205 142.033 190.664C142.78 191.123 143.153 191.821 143.153 192.76C143.153 193.4 142.95 193.933 142.545 194.36C142.15 194.787 141.665 195.059 141.089 195.176ZM137.745 191.176V194.648H139.409C140.049 194.648 140.572 194.493 140.977 194.184C141.393 193.875 141.601 193.437 141.601 192.872C141.601 192.232 141.382 191.789 140.945 191.544C140.518 191.299 139.868 191.176 138.993 191.176H137.745ZM139.265 199.784C140.161 199.784 140.844 199.651 141.313 199.384C141.793 199.117 142.033 198.611 142.033 197.864C142.033 197.139 141.804 196.616 141.345 196.296C140.886 195.976 140.289 195.816 139.553 195.816H137.745V199.784H139.265ZM147.559 201.192C147.015 201.192 146.583 201.032 146.263 200.712C145.954 200.381 145.799 199.923 145.799 199.336V189.176L147.271 189V199.304C147.271 199.539 147.309 199.709 147.383 199.816C147.469 199.923 147.607 199.976 147.799 199.976C148.002 199.976 148.183 199.944 148.343 199.88L148.727 200.904C148.375 201.096 147.986 201.192 147.559 201.192ZM153.657 192.376C154.841 192.376 155.758 192.771 156.409 193.56C157.07 194.349 157.401 195.421 157.401 196.776C157.401 197.651 157.251 198.424 156.953 199.096C156.654 199.757 156.222 200.275 155.657 200.648C155.091 201.011 154.419 201.192 153.641 201.192C152.457 201.192 151.534 200.797 150.873 200.008C150.211 199.219 149.881 198.147 149.881 196.792C149.881 195.917 150.03 195.149 150.329 194.488C150.627 193.816 151.059 193.299 151.625 192.936C152.19 192.563 152.867 192.376 153.657 192.376ZM153.657 193.56C152.195 193.56 151.465 194.637 151.465 196.792C151.465 198.936 152.19 200.008 153.641 200.008C155.091 200.008 155.817 198.931 155.817 196.776C155.817 194.632 155.097 193.56 153.657 193.56ZM162.905 192.376C163.406 192.376 163.865 192.451 164.281 192.6C164.697 192.739 165.097 192.968 165.481 193.288L164.777 194.216C164.478 194.003 164.185 193.848 163.897 193.752C163.619 193.645 163.31 193.592 162.969 193.592C162.286 193.592 161.753 193.864 161.369 194.408C160.995 194.952 160.809 195.757 160.809 196.824C160.809 197.891 160.995 198.68 161.369 199.192C161.742 199.693 162.275 199.944 162.969 199.944C163.299 199.944 163.603 199.896 163.881 199.8C164.158 199.693 164.467 199.528 164.809 199.304L165.481 200.264C164.713 200.883 163.854 201.192 162.905 201.192C161.763 201.192 160.862 200.808 160.201 200.04C159.55 199.272 159.225 198.211 159.225 196.856C159.225 195.96 159.374 195.176 159.673 194.504C159.971 193.832 160.393 193.309 160.937 192.936C161.491 192.563 162.147 192.376 162.905 192.376ZM168.945 189V201H167.473V189.176L168.945 189ZM173.793 192.568L170.689 196.296L174.145 201H172.385L169.041 196.392L172.145 192.568H173.793ZM60.168 209.296V220H58.696V210.864L56.2 212.384L55.56 211.344L58.872 209.296H60.168Z" fill="#777777"/>
<path d="M144.272 363.56C143.995 363.971 143.773 364.339 143.608 364.664C143.448 364.984 143.32 365.349 143.224 365.76C143.133 366.171 143.088 366.651 143.088 367.2C143.088 367.744 143.133 368.221 143.224 368.632C143.32 369.043 143.448 369.413 143.608 369.744C143.773 370.069 143.995 370.435 144.272 370.84L143.808 371.16C143.456 370.659 143.184 370.248 142.992 369.928C142.805 369.603 142.645 369.216 142.512 368.768C142.384 368.315 142.32 367.792 142.32 367.2C142.32 366.608 142.384 366.088 142.512 365.64C142.645 365.187 142.805 364.8 142.992 364.48C143.184 364.155 143.456 363.741 143.808 363.24L144.272 363.56ZM147.426 364.392C147.772 364.392 148.071 364.443 148.322 364.544C148.578 364.64 148.831 364.792 149.082 365L148.634 365.464C148.436 365.304 148.247 365.189 148.066 365.12C147.884 365.051 147.671 365.016 147.426 365.016C147.143 365.016 146.882 365.093 146.642 365.248C146.407 365.397 146.215 365.64 146.066 365.976C145.916 366.307 145.842 366.728 145.842 367.24C145.842 368.013 145.967 368.579 146.218 368.936C146.474 369.293 146.85 369.472 147.346 369.472C147.751 369.472 148.1 369.389 148.394 369.224V367.56H147.418L147.33 366.944H149.146V369.608C148.575 369.933 147.975 370.096 147.346 370.096C146.62 370.096 146.052 369.853 145.642 369.368C145.236 368.883 145.034 368.173 145.034 367.24C145.034 366.643 145.14 366.131 145.354 365.704C145.572 365.272 145.863 364.947 146.226 364.728C146.594 364.504 146.994 364.392 147.426 364.392ZM152.233 365.688C152.382 365.688 152.521 365.704 152.649 365.736L152.513 366.456C152.385 366.424 152.262 366.408 152.145 366.408C151.883 366.408 151.673 366.504 151.513 366.696C151.353 366.888 151.227 367.187 151.137 367.592V370H150.401V365.784H151.033L151.105 366.64C151.217 366.325 151.369 366.088 151.561 365.928C151.753 365.768 151.977 365.688 152.233 365.688ZM154.223 365.784V370H153.487V365.784H154.223ZM153.847 363.76C154.001 363.76 154.127 363.808 154.223 363.904C154.319 364 154.367 364.12 154.367 364.264C154.367 364.408 154.319 364.528 154.223 364.624C154.127 364.715 154.001 364.76 153.847 364.76C153.697 364.76 153.575 364.715 153.479 364.624C153.383 364.528 153.335 364.408 153.335 364.264C153.335 364.12 153.383 364 153.479 363.904C153.575 363.808 153.697 363.76 153.847 363.76ZM157.176 364.592C156.952 364.592 156.792 364.643 156.696 364.744C156.6 364.84 156.552 364.992 156.552 365.2V365.784H157.576L157.496 366.352H156.552V370H155.816V366.352H155.064V365.784H155.816V365.208C155.816 364.845 155.931 364.555 156.16 364.336C156.395 364.112 156.72 364 157.136 364C157.328 364 157.499 364.019 157.648 364.056C157.803 364.088 157.968 364.141 158.144 364.216L157.912 364.752C157.672 364.645 157.427 364.592 157.176 364.592ZM159.872 364C160.096 364 160.299 364.024 160.48 364.072C160.667 364.12 160.853 364.192 161.04 364.288L160.784 364.8C160.507 364.667 160.211 364.6 159.896 364.6C159.613 364.6 159.419 364.651 159.312 364.752C159.205 364.853 159.152 365.011 159.152 365.224V365.784H161.504V370H160.768V366.352H159.152V370H158.416V366.352H157.744V365.784H158.416V365.232C158.416 364.859 158.536 364.56 158.776 364.336C159.016 364.112 159.381 364 159.872 364ZM165.01 365.688C165.394 365.688 165.692 365.803 165.906 366.032C166.124 366.261 166.234 366.576 166.234 366.976V370H165.498V367.08C165.498 366.781 165.442 366.571 165.33 366.448C165.218 366.325 165.052 366.264 164.834 366.264C164.61 366.264 164.412 366.328 164.242 366.456C164.071 366.584 163.911 366.768 163.762 367.008V370H163.026V365.784H163.658L163.722 366.408C163.871 366.184 164.055 366.008 164.274 365.88C164.498 365.752 164.743 365.688 165.01 365.688ZM173.43 364.488L171.654 367.88V370H170.886V367.888L169.11 364.488H169.95L171.294 367.216L172.638 364.488H173.43ZM176.436 369.016C176.436 369.187 176.465 369.315 176.524 369.4C176.583 369.48 176.671 369.541 176.788 369.584L176.62 370.096C176.401 370.069 176.225 370.008 176.092 369.912C175.959 369.816 175.86 369.667 175.796 369.464C175.513 369.885 175.095 370.096 174.54 370.096C174.124 370.096 173.796 369.979 173.556 369.744C173.316 369.509 173.196 369.203 173.196 368.824C173.196 368.376 173.356 368.032 173.676 367.792C174.001 367.552 174.46 367.432 175.052 367.432H175.7V367.12C175.7 366.821 175.628 366.608 175.484 366.48C175.34 366.352 175.119 366.288 174.82 366.288C174.511 366.288 174.132 366.363 173.684 366.512L173.5 365.976C174.023 365.784 174.508 365.688 174.956 365.688C175.452 365.688 175.823 365.811 176.068 366.056C176.313 366.296 176.436 366.64 176.436 367.088V369.016ZM174.708 369.544C175.129 369.544 175.46 369.325 175.7 368.888V367.92H175.148C174.369 367.92 173.98 368.208 173.98 368.784C173.98 369.035 174.041 369.224 174.164 369.352C174.287 369.48 174.468 369.544 174.708 369.544ZM179.484 365.688C179.734 365.688 179.964 365.725 180.172 365.8C180.38 365.869 180.58 365.984 180.772 366.144L180.42 366.608C180.27 366.501 180.124 366.424 179.98 366.376C179.841 366.323 179.686 366.296 179.516 366.296C179.174 366.296 178.908 366.432 178.716 366.704C178.529 366.976 178.436 367.379 178.436 367.912C178.436 368.445 178.529 368.84 178.716 369.096C178.902 369.347 179.169 369.472 179.516 369.472C179.681 369.472 179.833 369.448 179.972 369.4C180.11 369.347 180.265 369.264 180.436 369.152L180.772 369.632C180.388 369.941 179.958 370.096 179.484 370.096C178.913 370.096 178.462 369.904 178.132 369.52C177.806 369.136 177.644 368.605 177.644 367.928C177.644 367.48 177.718 367.088 177.868 366.752C178.017 366.416 178.228 366.155 178.5 365.968C178.777 365.781 179.105 365.688 179.484 365.688ZM183.456 370.024C183.29 370.515 183.058 370.901 182.76 371.184C182.466 371.472 182.045 371.645 181.496 371.704L181.416 371.128C181.693 371.08 181.914 371.011 182.08 370.92C182.245 370.829 182.376 370.712 182.472 370.568C182.573 370.429 182.666 370.24 182.752 370H182.504L181.088 365.784H181.872L183 369.464L184.104 365.784H184.864L183.456 370.024ZM187.689 365.688C188.073 365.688 188.372 365.803 188.585 366.032C188.804 366.261 188.913 366.576 188.913 366.976V370H188.177V367.08C188.177 366.781 188.121 366.571 188.009 366.448C187.897 366.325 187.732 366.264 187.513 366.264C187.289 366.264 187.092 366.328 186.921 366.456C186.751 366.584 186.591 366.768 186.441 367.008V370H185.705V365.784H186.337L186.401 366.408C186.551 366.184 186.735 366.008 186.953 365.88C187.177 365.752 187.423 365.688 187.689 365.688ZM193.529 370H192.897L192.841 369.344C192.681 369.605 192.497 369.797 192.289 369.92C192.081 370.037 191.827 370.096 191.529 370.096C191.161 370.096 190.873 369.984 190.665 369.76C190.457 369.536 190.353 369.219 190.353 368.808V365.784H191.089V368.728C191.089 369.016 191.139 369.221 191.241 369.344C191.342 369.461 191.507 369.52 191.737 369.52C192.147 369.52 192.499 369.277 192.793 368.792V365.784H193.529V370ZM195.785 364V370H195.049V364.088L195.785 364ZM198.209 365.784L196.657 367.648L198.385 370H197.505L195.833 367.696L197.385 365.784H198.209ZM199.366 368.984C199.526 368.984 199.659 369.037 199.766 369.144C199.873 369.251 199.926 369.381 199.926 369.536C199.926 369.701 199.878 369.891 199.782 370.104L199.246 371.328H198.718L199.038 370C198.969 369.947 198.913 369.88 198.87 369.8C198.833 369.72 198.814 369.632 198.814 369.536C198.814 369.381 198.867 369.251 198.974 369.144C199.081 369.037 199.211 368.984 199.366 368.984ZM204.277 364.568C204.597 364.568 204.877 364.632 205.117 364.76C205.362 364.888 205.552 365.064 205.685 365.288C205.818 365.507 205.885 365.755 205.885 366.032C205.885 366.357 205.81 366.669 205.661 366.968C205.517 367.267 205.293 367.589 204.989 367.936C204.685 368.283 204.224 368.765 203.605 369.384H206.013L205.925 370H202.765V369.416C203.48 368.675 203.986 368.133 204.285 367.792C204.584 367.445 204.797 367.144 204.925 366.888C205.053 366.632 205.117 366.357 205.117 366.064C205.117 365.787 205.037 365.571 204.877 365.416C204.717 365.256 204.504 365.176 204.237 365.176C204.018 365.176 203.826 365.221 203.661 365.312C203.496 365.403 203.32 365.552 203.133 365.76L202.653 365.376C202.872 365.104 203.114 364.901 203.381 364.768C203.648 364.635 203.946 364.568 204.277 364.568ZM208.646 364.568C209.238 364.568 209.683 364.805 209.982 365.28C210.286 365.749 210.438 366.432 210.438 367.328C210.438 368.224 210.286 368.909 209.982 369.384C209.683 369.859 209.238 370.096 208.646 370.096C208.054 370.096 207.606 369.859 207.302 369.384C207.003 368.909 206.854 368.224 206.854 367.328C206.854 366.432 207.003 365.749 207.302 365.28C207.606 364.805 208.054 364.568 208.646 364.568ZM208.646 365.152C208.299 365.152 208.041 365.323 207.87 365.664C207.705 366.005 207.622 366.56 207.622 367.328C207.622 368.096 207.705 368.653 207.87 369C208.041 369.341 208.299 369.512 208.646 369.512C208.987 369.512 209.243 369.341 209.414 369C209.585 368.653 209.67 368.096 209.67 367.328C209.67 366.565 209.585 366.013 209.414 365.672C209.243 365.325 208.987 365.152 208.646 365.152ZM212.605 364.568C212.925 364.568 213.205 364.632 213.445 364.76C213.691 364.888 213.88 365.064 214.013 365.288C214.147 365.507 214.213 365.755 214.213 366.032C214.213 366.357 214.139 366.669 213.989 366.968C213.845 367.267 213.621 367.589 213.317 367.936C213.013 368.283 212.552 368.765 211.933 369.384H214.341L214.253 370H211.093V369.416C211.808 368.675 212.315 368.133 212.613 367.792C212.912 367.445 213.125 367.144 213.253 366.888C213.381 366.632 213.445 366.357 213.445 366.064C213.445 365.787 213.365 365.571 213.205 365.416C213.045 365.256 212.832 365.176 212.565 365.176C212.347 365.176 212.155 365.221 211.989 365.312C211.824 365.403 211.648 365.552 211.461 365.76L210.981 365.376C211.2 365.104 211.443 364.901 211.709 364.768C211.976 364.635 212.275 364.568 212.605 364.568ZM217.123 364.648V370H216.387V365.432L215.139 366.192L214.819 365.672L216.475 364.648H217.123ZM218.784 363.24C219.136 363.741 219.405 364.155 219.592 364.48C219.784 364.8 219.944 365.187 220.072 365.64C220.205 366.088 220.272 366.608 220.272 367.2C220.272 367.792 220.205 368.315 220.072 368.768C219.944 369.216 219.784 369.603 219.592 369.928C219.405 370.248 219.136 370.659 218.784 371.16L218.32 370.84C218.597 370.435 218.816 370.069 218.976 369.744C219.141 369.413 219.269 369.043 219.36 368.632C219.456 368.221 219.504 367.744 219.504 367.2C219.504 366.651 219.456 366.171 219.36 365.76C219.269 365.349 219.141 364.984 218.976 364.664C218.816 364.339 218.597 363.971 218.32 363.56L218.784 363.24Z" fill="#BDBDBD"/>
</svg>
