<svg width="72" height="72" viewBox="0 0 72 72" fill="none" xmlns="http://www.w3.org/2000/svg">
<g filter="url(#filter0_d)">
<path d="M52.3934 63.0935H19.6066C17.6179 63.0935 16 61.4756 16 59.4869V8.0115C16 6.02281 17.6179 4.40494 19.6066 4.40494H26.3279C27.2333 4.40494 27.9672 5.13887 27.9672 6.04428V7.63281C27.9672 7.68412 28.0821 7.80986 28.2951 7.80986H43.7049C43.9179 7.80986 44.0328 7.68412 44.0328 7.63281V6.04428C44.0328 5.13887 44.7667 4.40494 45.6721 4.40494H52.3934C54.3821 4.40494 56 6.02281 56 8.0115V59.4869C56 61.4756 54.3821 63.0935 52.3934 63.0935ZM19.6066 7.68363C19.4257 7.68363 19.2787 7.83068 19.2787 8.0115V59.4869C19.2787 59.6677 19.4257 59.8148 19.6066 59.8148H52.3934C52.5743 59.8148 52.7213 59.6677 52.7213 59.4869V8.0115C52.7213 7.83068 52.5743 7.68363 52.3934 7.68363H47.3111C47.2826 9.56576 45.6759 11.0887 43.7049 11.0887H28.2951C26.3241 11.0887 24.7174 9.56576 24.6889 7.68363H19.6066Z" fill="black"/>
<path d="M43.7049 11.0885H28.2951C26.3064 11.0885 24.6885 9.5382 24.6885 7.63279V4.45574C24.6885 2.55016 26.3064 1 28.2951 1H43.7049C45.6936 1 47.3115 2.55033 47.3115 4.45574V7.63279C47.3115 9.53836 45.6936 11.0885 43.7049 11.0885ZM28.2951 4.27869C28.0821 4.27869 27.9672 4.40443 27.9672 4.45574V7.63279C27.9672 7.6841 28.0821 7.80984 28.2951 7.80984H43.7049C43.9179 7.80984 44.0328 7.6841 44.0328 7.63279V4.45574C44.0328 4.40443 43.9179 4.27869 43.7049 4.27869H28.2951Z" fill="black"/>
<path d="M52.378 17.5197H19.889C17.8959 17.5197 16.2744 15.9018 16.2744 13.9131V8.09347C16.2744 6.10478 17.8959 4.48691 19.889 4.48691H26.2051C27.1105 4.48691 27.8444 5.22084 27.8444 6.12625V7.63281C27.8444 7.68691 27.9713 7.80986 28.1805 7.80986H43.6539C43.8629 7.80986 43.9898 7.68691 43.9898 7.63281V6.12625C43.9898 5.22084 44.7238 4.48691 45.6292 4.48691H52.378C54.3711 4.48691 55.9928 6.10478 55.9928 8.09347V13.9131C55.9928 15.9018 54.3711 17.5197 52.378 17.5197ZM19.889 7.7656C19.7038 7.7656 19.5531 7.91265 19.5531 8.09347V13.9131C19.5531 14.094 19.7038 14.241 19.889 14.241H52.378C52.5633 14.241 52.7141 14.094 52.7141 13.9131V8.09347C52.7141 7.91265 52.5634 7.7656 52.378 7.7656H47.2657C47.1926 9.60986 45.6003 11.0887 43.6538 11.0887H28.1803C26.2336 11.0887 24.6415 9.60986 24.5682 7.7656H19.889Z" fill="black"/>
<path d="M33.3361 44.323C32.9165 44.323 32.4969 44.1629 32.1769 43.8428L28.1605 39.8264C27.5203 39.1862 27.5203 38.1482 28.1605 37.5079C28.8006 36.8675 29.8387 36.8677 30.479 37.5079L33.3362 40.3651L41.8492 31.8521C42.4893 31.212 43.5274 31.212 44.1677 31.8521C44.808 32.4923 44.8079 33.5303 44.1677 34.1707L34.4956 43.8428C34.1752 44.1629 33.7556 44.323 33.3361 44.323Z" fill="black"/>
</g>
<defs>
<filter id="filter0_d" x="0" y="0" width="72" height="72" filterUnits="userSpaceOnUse" color-interpolation-filters="sRGB">
<feFlood flood-opacity="0" result="BackgroundImageFix"/>
<feColorMatrix in="SourceAlpha" type="matrix" values="0 0 0 0 0 0 0 0 0 0 0 0 0 0 0 0 0 0 127 0"/>
<feOffset dy="4"/>
<feGaussianBlur stdDeviation="2"/>
<feColorMatrix type="matrix" values="0 0 0 0 0 0 0 0 0 0 0 0 0 0 0 0 0 0 0.25 0"/>
<feBlend mode="normal" in2="BackgroundImageFix" result="effect1_dropShadow"/>
<feBlend mode="normal" in="SourceGraphic" in2="effect1_dropShadow" result="shape"/>
</filter>
</defs>
</svg>
